<?xml version="1.0" encoding="UTF-8"?>
<svg id="Layer_2" data-name="Layer 2" xmlns="http://www.w3.org/2000/svg" viewBox="0 0 388.8 140.91">
  <defs>
    <style>
      .cls-1 {
        fill: #4a4a4a;
      }

      .cls-2 {
        fill: #ff9d1f;
        fill-rule: evenodd;
      }

      .cls-3 {
        fill: none;
      }

      .cls-4 {
        isolation: isolate;
      }

      .cls-5 {
        font-family: Zain-Regular, Zain;
        font-size: 113.91px;
      }

      .cls-6 {
        opacity: .77;
      }
    </style>
  </defs>
  <g id="Logo" class="cls-4">
    <g>
      <text class="cls-5" transform="translate(0 88.62) scale(1.04 1)"><tspan class="cls-1" x="0" y="0">Mesos</tspan><tspan class="cls-3" x="240.8" y="0">y</tspan><tspan class="cls-1" x="281.92" y="0">nc</tspan></text>
      <g id="Tornado" class="cls-6">
        <g>
          <path class="cls-2" d="M270.95,107.91c-2.56.77-5.1,1.51-7.7,2.25-.16.04.45-.24,1.24-.65,2.53-1.34,4.29-2.86,5.49-4.48.38-.52.96-1.12,1.33-1.3,5.57-2.71,5.13.42,8.63-1.24.23-.11.04.16-.51.62-1.58,1.32-2.79,2.28-6.56,4.02-.86.39-1.76.73-1.92.79Z"/>
          <path class="cls-2" d="M280.87,100.59c-3.6,2.39-3.9-2.31-9.46,1.36-.37.24-.6.02-.54-.55.22-1.79.03-3.6-.42-5.41-.14-.57.05-1.35.43-1.64,5.53-4.37,6,2.33,12.53-.21,1.69-.65-.64,3.62-1.55,5.22-.29.51-.76,1.08-1,1.22Z"/>
        </g>
        <path class="cls-2" d="M284.02,91.72c-3.46,4.55-8.35-4.35-13.82.09-.38.3-.92.17-1.2-.39-.88-1.75-1.91-3.48-3.01-5.19-.35-.54-.3-1.27.11-1.53,5.97-3.6,12.21,4.83,17.39.92,2.13-1.61,1.21,2.92.94,4.65-.08.49-.18,1.17-.41,1.45Z"/>
        <path class="cls-2" d="M284.33,83.07c-9.31,5.42-12.77-3.79-18.84-.37-.4.25-1.05.13-1.45-.38-1.24-1.58-2.48-3.14-3.64-4.71-.37-.5-.34-1.1.07-1.24,6.81-1.71,12.59,6.16,20.98,2.93.99-.38,3.41-2.66,3.5-1.34s.14,4-.62,5.11Z"/>
        <path class="cls-2" d="M283.82,75.23c-.61.51-3.19,2.7-6.54,2.31-6.16-.72-11.58-3.14-13.77-3.25-1.16-.06-2.49.23-4.01.38-1.61.16-2.62-5.15-3.04-6.89-.12-.51-.17-.63.26-.63,6.22,0,8.36,3.25,12.72,4.27,2.89.7,9.17,1.16,14.53-2.28,2.02-1.3,1.49,1.51,1.17,3.06-.25,1.24-.09,2.12-1.33,3.04Z"/>
        <path class="cls-2" d="M254.76,58.19c-.18.05-.28.22-.27.41.12,1.69.5,6.49,1.57,6.56,11.02.71,9.67,5.44,18,4.83,6.2-.45,9.51-2.4,11.02-3.32.88-.54,1.39-2.39,2.02-4.64.06-.2-.14-.37-.34-.3-4.67,1.59-15.52,2.14-19.5,1.1-6.21-1.63-11.4-4.94-12.5-4.64Z"/>
        <path class="cls-2" d="M256.23,47.11c.09-.34,11.39-.8,11.46.04.38,4.78.95,8.48,3.03,13.79.54,1.37-7.85-.91-15.63-4.34-.47-.22-.62-2.76,1.15-9.48Z"/>
        <path class="cls-2" d="M281.14,47.06c5.43-.68,10.45-.48,11.01.36.73,1.11-3.84,11.29-4.6,12.47-.55.85-16.17,2.8-15.85,1.4.75-3.26,6.86-13.9,9.44-14.22Z"/>
      </g>
    </g>
  </g>
</svg>